<svg xmlns="http://www.w3.org/2000/svg" viewBox="0 0 752 568.43"><defs><style>.cls-1{fill:#fff;}.cls-2{fill:none;stroke:#fff;stroke-miterlimit:10;stroke-width:7.53px;}</style></defs><title>hero-banner-txt</title><g id="Camada_2" data-name="Camada 2"><g id="Camada_1-2" data-name="Camada 1"><path class="cls-1" d="M64.85,449.42q0-2.72,4.08-5.67t15-3a42.07,42.07,0,0,1,9.08.91q4.08.91,9.08,2.27a109.36,109.36,0,0,0,13.84-20.23,223.29,223.29,0,0,0,12.25-26.84q5.67-14.79,10.89-31.15t10.21-33.66q5.89-22.28,12.48-43.43a280.26,280.26,0,0,1,14.52-37.74q7.94-16.59,17.93-26.61a32.25,32.25,0,0,1,23.6-10q10.44,0,15,7.94t4.54,20.2a100,100,0,0,1-3.86,26.32,195.77,195.77,0,0,1-9.08,26.1,109.63,109.63,0,0,1-10.89,20q-5.68,7.95-9.3,7.94h-.91a.4.4,0,0,1-.45-.45,127.45,127.45,0,0,0,14.75-24.06,162,162,0,0,0,8.85-23.37A132.38,132.38,0,0,0,230.74,254a145.65,145.65,0,0,0,1.13-16.11,20.25,20.25,0,0,0-1.59-8.17q-1.6-3.63-7-3.63-8.17,0-14.75,9.53t-13.16,25.64q-6.58,16.12-13.16,37t-13.84,44q-11.81,37.22-22.69,65.81t-25.42,44.93a270.35,270.35,0,0,1,29.5,21.56q15,12.49,31.32,23.83A214.79,214.79,0,0,0,215.54,518a94,94,0,0,0,39,8.17q18.6,0,31.32-4.31t20.88-10.67A46.3,46.3,0,0,0,319,497.53a63.87,63.87,0,0,0,5.9-13.62,30.22,30.22,0,0,1,6.58,7q3.4,4.77,3.4,8.4,0,6.36-4.54,13.16T316.53,525a87.93,87.93,0,0,1-22.69,9.3q-13.39,3.63-31.09,3.63a100.38,100.38,0,0,1-42.44-9.08,234.75,234.75,0,0,1-37.67-21.79q-17.94-12.7-34.49-26.55a242.17,242.17,0,0,0-32-22.92,48.19,48.19,0,0,1-34,13.62,14.34,14.34,0,0,1-7.26-1.82,18.36,18.36,0,0,1-5.22-4.31,22.56,22.56,0,0,1-3.18-5,40.45,40.45,0,0,1-1.59-3.86q2.27,2.28,8.62,2.27,12.25,0,23.15-10a55.13,55.13,0,0,0-14.52-2.27,22.76,22.76,0,0,0-7.94,1.13,33.44,33.44,0,0,0-5.22,2.5,44.59,44.59,0,0,0-3.63,3.18A11.71,11.71,0,0,1,64.85,449.42Z"/><path class="cls-1" d="M349.88,386.78q-9.08,11.35-23.37,27.69T296.32,446a267.39,267.39,0,0,1-31.09,25.87Q250,482.56,239.59,482.55q-13.16,0-18.61-9.53a39.66,39.66,0,0,1-5.45-20,152.08,152.08,0,0,1,4.77-35.86,137.31,137.31,0,0,1,14.3-36.08,94.08,94.08,0,0,1,23.83-27.69,52.12,52.12,0,0,1,32.91-11.12q11.34,0,17.7,5A15.5,15.5,0,0,1,315.39,360,30.75,30.75,0,0,1,309,378.61a72.29,72.29,0,0,1-16.11,15.66A146.74,146.74,0,0,1,271.59,407q-11.57,5.68-22,9.76,10-2.27,20.42-3.86a114.32,114.32,0,0,1,15.43-1.59q8.17,0,8.17,1.82a11.49,11.49,0,0,1-2.27,6.81A94.42,94.42,0,0,0,265,419q-14.07,1.36-27.23,3.63-3.63,16.8-3.63,27.23,0,12.71,2.72,17.93t9.08,5.22q8.17,0,22-10.44a295.68,295.68,0,0,0,29-25.42q15.2-15,29.5-31.09t23.38-27.46ZM240,415.38a154.2,154.2,0,0,0,21.56-9.53,120,120,0,0,0,20.2-13.39,78.46,78.46,0,0,0,15-16.11,31,31,0,0,0,5.9-17.7,11.6,11.6,0,0,0-1.82-6.13q-1.82-2.95-6.81-3a30.65,30.65,0,0,0-17.93,5.9,64.12,64.12,0,0,0-15.21,15.43,131.23,131.23,0,0,0-12.25,21.33A155,155,0,0,0,240,415.38Z"/><path class="cls-1" d="M438.84,340.94a127.51,127.51,0,0,1-7.72,26.78,290.44,290.44,0,0,1-14.3,30.64q-8.4,15.66-18.16,30.41a282.78,282.78,0,0,1-19.74,26.55,130,130,0,0,1-19.06,18.84q-9.08,7-15.89,7-5,0-7.49-1.36a7.44,7.44,0,0,1-3.4-3.4,7.84,7.84,0,0,1-.68-4.08,30.68,30.68,0,0,0,.23-3.4q0-5.45,3.18-21.56t7.26-36.08q4.08-20,7.94-40.4t5.22-34.49q4.53,1.82,11.12,5t6.58,5.45q0,2.72-1.82,11.8t-4.77,21.79q-3,12.71-6.35,26.78t-6.35,26.33q-3,12.25-4.77,21.11a98.85,98.85,0,0,0-1.82,10.21q0,6.81,4.54,6.81,3.63,0,10.21-5.67a134.86,134.86,0,0,0,14.75-15.43,219.58,219.58,0,0,0,16.79-23.37,208.83,208.83,0,0,0,15.43-29.5,230.57,230.57,0,0,0,11.35-33.59,160.37,160.37,0,0,0,5-35.86q4.53,2.28,9.3,5T438.84,340.94Z"/><path class="cls-1" d="M468.35,41.3q-3.64,21.79-14.07,49.47a552.3,552.3,0,0,1-25.19,56.51q-14.75,28.83-32,56.05a545.45,545.45,0,0,1-34.49,48.79q-17.25,21.56-32.91,34.49t-26.55,12.94A23.75,23.75,0,0,1,292,297.29a18.31,18.31,0,0,1-6.58-5.45,17,17,0,0,1-3-7,43,43,0,0,1-.68-7.49q0-6.81,3-22.69T292,218.09q4.31-20.65,9.3-43.8t9.3-44.71q4.31-21.55,7.26-39t3-26.55a111.76,111.76,0,0,0-2.27-23.6,41.48,41.48,0,0,0-7.94-17.47A36.68,36.68,0,0,0,295.19,12q-9.77-3.85-24.28-3.86A87.8,87.8,0,0,0,236,15a110.37,110.37,0,0,0-28.59,17.7A134.42,134.42,0,0,0,184.9,57.42a177.76,177.76,0,0,0-16.34,28.14A149.81,149.81,0,0,0,158.8,113a98.8,98.8,0,0,0-3.18,22.69q0,14.07,2.72,22.24T162,168.84a41.3,41.3,0,0,1-10.89-8.62,52,52,0,0,1-7.49-13.39q-3.4-8.39-3.4-21.56,0-20.87,9.76-42.89A146.69,146.69,0,0,1,176.73,42a141.22,141.22,0,0,1,40.4-30.18,115,115,0,0,1,78.52-8.4,60.35,60.35,0,0,1,23.83,12Q329.91,24.06,336,38.35t6.13,36.08q0,8.63-3,25.19t-7.26,37q-4.32,20.42-9.3,42.44t-9.3,41.08Q309,239.19,306.08,253t-3,17.93q0,6.81,2.72,9.08t7.72,2.27q6.35,0,18.84-10.21t27.46-28.37a390.6,390.6,0,0,0,30.41-43.12,431.83,431.83,0,0,0,28.14-54,409.15,409.15,0,0,0,21.11-61.5,277.87,277.87,0,0,0,8.85-66A63,63,0,0,1,463.58,27Q470.15,31.77,468.35,41.3Z"/><path class="cls-1" d="M511,206.06q-10.89,21.34-22,39a358.21,358.21,0,0,1-21.11,30.41Q457.9,288.22,450,295t-12.48,6.81a12.06,12.06,0,0,1-7-2q-2.95-2-3-11.12,0-5,2.5-14.52t6.13-21.33q3.64-11.8,7.94-25.19t8.17-26.32q3.85-12.94,6.81-24.06a98.49,98.49,0,0,0,3.4-18.84,105.16,105.16,0,0,1,11.12,5.45q6.57,3.64,6.58,6.35,0,1.82-3,11.57t-7,22.92q-4.09,13.17-8.85,28.14t-8.4,27.69q-3.63,12.71-5.45,21.11t0,8.4q1.82,0,8.62-7A197.63,197.63,0,0,0,472,263.7q9.07-12.25,19.29-29A412.57,412.57,0,0,0,511,197.89Zm-18.16-86.69q0,3.64-2.5,9.08a31.41,31.41,0,0,0-2.5,13.16q-9.08-1.36-12.71-3.18t-3.63-6.35q0-3.63,2.72-9.3a20.51,20.51,0,0,0,1.82-12Q492.84,112.57,492.85,119.37Z"/><path class="cls-1" d="M600,160.22A127.51,127.51,0,0,1,592.25,187a290.44,290.44,0,0,1-14.3,30.64q-8.4,15.66-18.16,30.41A282.78,282.78,0,0,1,540,274.6,130,130,0,0,1,521,293.43q-9.08,7-15.89,7-5,0-7.49-1.36a7.44,7.44,0,0,1-3.4-3.4,7.84,7.84,0,0,1-.68-4.08,30.68,30.68,0,0,0,.23-3.4q0-5.45,3.18-21.56t7.26-36.08q4.08-20,7.94-40.4t5.22-34.49q4.53,1.82,11.12,5t6.58,5.45q0,2.72-1.82,11.8t-4.77,21.79q-3,12.71-6.35,26.78t-6.35,26.33q-3,12.25-4.77,21.11a98.85,98.85,0,0,0-1.82,10.21q0,6.81,4.54,6.81,3.63,0,10.21-5.67a134.86,134.86,0,0,0,14.75-15.43,219.58,219.58,0,0,0,16.79-23.37A208.83,208.83,0,0,0,570.91,217a230.57,230.57,0,0,0,11.35-33.59,160.37,160.37,0,0,0,5-35.86q4.53,2.28,9.3,5T600,160.22Z"/><path class="cls-1" d="M669.4,167q-14.07,0-25,11.3a97.94,97.94,0,0,0-18.16,26.91,154.4,154.4,0,0,0-10.89,32.11q-3.64,16.51-3.63,27.35,0,14.47,2.27,19.67t5.9,5.2q3.63,0,11.57-10a279.43,279.43,0,0,0,18.61-27.46q10.66-17.47,23.15-41.53t25.19-52.65a50.21,50.21,0,0,1,9.76,5.45q5.21,3.64,5.22,5.9,0,.91-2.72,10t-6.58,22.24q-3.86,13.17-8.17,28.37t-7.72,27.91q-3.4,12.71-5.22,21.33t-.45,8.62q1.81,0,9.08-6.81a235.68,235.68,0,0,0,17.47-18.84q10.21-12,21.79-28.59A268.6,268.6,0,0,0,752,197.44v8.17q-1.36,2.28-6.35,10.44T733.4,234.66q-7.27,10.45-15.89,22.24t-16.79,21.8a138.92,138.92,0,0,1-15.66,16.57q-7.49,6.57-12,6.57a10.66,10.66,0,0,1-6.35-2.34q-3.18-2.34-3.18-11.73a96.81,96.81,0,0,1,2-17.47q2-10.66,5.45-23.37t7.49-26.55q4.08-13.84,8.17-27h-.45q-5,10.45-13.84,28.37T653.29,256.9a277.11,277.11,0,0,1-20.2,30q-10,12.71-17.25,12.71-13.62,0-18.61-9.11t-5-25.5q0-13.2,4.77-31.87a189.63,189.63,0,0,1,13.16-36,117.84,117.84,0,0,1,20-29.59q11.57-12.3,25.19-12.3a32.46,32.46,0,0,1,17,4.49q7.49,4.49,8.85,7.31v.91Q679.84,167,669.4,167Z"/><path class="cls-1" d="M37.34,418.14a7.78,7.78,0,0,1-4.44,1.27,5.83,5.83,0,0,1-3.81,0,4,4,0,0,1-2.54-3.17q-1.28-3.17,2.22-14.6T38,375q-13.33.64-23.81.32t-13-2.86c-1.27-.84-1.49-2.43-.63-4.76a34.45,34.45,0,0,1,3.81-7.3l6.35-8.89q5.07,1.9,14.92,1.27t21.27-1.9q5.71-14.6,10.48-26.35a148,148,0,0,0,6-16.83L71,306.38q7-1.27,8.89,1.9,1.27,3.19-3.18,14.29T65.92,348.29q14.6-2.53,26.67-3.81t15.24,1.27q1.27,1.28-.32,5.4a55.24,55.24,0,0,1-4.76,9.21l-7.62,12.7a124,124,0,0,0-16.51-.32q-11.43.33-24.76,1.59-7,14.61-11.43,26.67T37.34,418.14Z"/><path class="cls-2" d="M689.48,521.1a23.7,23.7,0,0,1-47.41,0c0-13.1,23.72-39.73,23.72-39.73S689.48,508,689.48,521.1Z"/><path class="cls-2" d="M709.58,395.89a19.39,19.39,0,0,1-38.79,0c0-10.71,19.4-32.51,19.4-32.51S709.58,385.18,709.58,395.89Z"/><path class="cls-2" d="M400.71,549.82a14.85,14.85,0,0,1-29.69,0c0-8.2,14.85-24.88,14.85-24.88S400.71,541.62,400.71,549.82Z"/><path class="cls-2" d="M528.7,372.49a23,23,0,0,1-45.91,0c0-12.68,23-38.47,23-38.47S528.7,359.81,528.7,372.49Z"/><path class="cls-2" d="M633.46,369.07a31.27,31.27,0,0,1-62.54,0c0-17.28,31.29-52.41,31.29-52.41S633.46,351.79,633.46,369.07Z"/><path class="cls-2" d="M610.86,377.27a15.29,15.29,0,0,1-17.34.23"/><path class="cls-2" d="M529,441.17c4,3.85,8,8.12,13.41,9.45a21.39,21.39,0,0,0,4.62.55"/><path class="cls-2" d="M547.06,451.17a17.18,17.18,0,0,0,7.54-1.49c4.87-2.18,8.56-6.28,12.54-9.84s8.82-6.8,14.15-6.59c5.53.22,10.19,4.07,14.16,7.92s8,8.12,13.41,9.45a21.39,21.39,0,0,0,4.62.55"/><path class="cls-2" d="M613.48,451.17a17.18,17.18,0,0,0,7.54-1.49c4.87-2.18,8.56-6.28,12.54-9.84s8.82-6.8,14.15-6.59c5.53.22,10.19,4.07,14.16,7.92s8,8.12,13.41,9.45a21.39,21.39,0,0,0,4.62.55"/><path class="cls-2" d="M679.9,451.17a17.18,17.18,0,0,0,7.54-1.49c4.87-2.18,8.56-6.28,12.54-9.84"/><path class="cls-2" d="M450,494.17c4,3.86,8,8.12,13.41,9.45a21.39,21.39,0,0,0,4.62.55"/><path class="cls-2" d="M468,504.17a17.18,17.18,0,0,0,7.54-1.49c4.87-2.18,8.56-6.28,12.54-9.84s8.82-6.8,14.15-6.59c5.53.22,10.19,4.07,14.16,7.92s8,8.12,13.41,9.45a21.39,21.39,0,0,0,4.62.55"/><path class="cls-2" d="M534.43,504.17a17.18,17.18,0,0,0,7.54-1.49c4.87-2.18,8.56-6.28,12.54-9.84s8.82-6.8,14.15-6.59c5.53.22,10.19,4.07,14.16,7.92s8,8.12,13.41,9.45a21.39,21.39,0,0,0,4.62.55"/><path class="cls-2" d="M600.85,504.17a17.18,17.18,0,0,0,7.54-1.49c4.87-2.18,8.56-6.28,12.54-9.84"/><path class="cls-2" d="M431.92,549c4,3.86,8,8.12,13.41,9.45a21.39,21.39,0,0,0,4.62.55"/><path class="cls-2" d="M449.95,559a17.18,17.18,0,0,0,7.54-1.49c4.87-2.18,8.56-6.28,12.54-9.84s8.82-6.8,14.15-6.59c5.53.22,10.19,4.07,14.16,7.92s8,8.12,13.41,9.45a21.39,21.39,0,0,0,4.62.55"/><path class="cls-2" d="M516.37,559a17.18,17.18,0,0,0,7.54-1.49c4.87-2.18,8.56-6.28,12.54-9.84"/><circle class="cls-2" cx="496.51" cy="433.66" r="4.47"/></g></g></svg>