<svg xmlns="http://www.w3.org/2000/svg" width="121.681" height="70.703" viewBox="0 0 121.681 70.703"><path d="M60.2,32.171a90.858,90.858,0,0,0-9.214-.225V51.91c4.436-.025,8.365-.065,12.161-.352a63.465,63.465,0,0,0,11.429-1.852l.1-.025v3.673H43.9V16.007H73.031v3.179l-.1-.025c-6.644-1.725-11.4-1.713-18.1-1.7H50.982V30.424h18.11v3.451l-.1-.028a45.975,45.975,0,0,0-8.806-1.688M75.06,16.2l7.7.108,18.089,30.7,15.559-30.088a1.923,1.923,0,0,1,.618-.84,1.48,1.48,0,0,1,.927-.222h3.728l-.167.139a4.4,4.4,0,0,0-.4.37,2.181,2.181,0,0,0-.327.451L101.084,52.065q-1.622.634-3.237,1.281Q86.375,34.77,74.9,16.192ZM.08,0h7.8V51.352a119.012,119.012,0,0,0,14.6-.617,82.423,82.423,0,0,0,13.508-2.583l.1-.028q.059,2.614.133,5.247H0V0Z" fill="#fff"/><path d="M128.382,183.538l-1.473,7.6a3.492,3.492,0,0,0-.083.594c0,.149.046.223.136.223q.472,0,.926-1.5h.247q-.618,2.105-1.633,2.105a.66.66,0,0,1-.5-.226.872.872,0,0,1-.216-.619,3.818,3.818,0,0,1,.074-.567l1.38-7.17h-.75l.052-.334h.738a9.121,9.121,0,0,0,1.087-.1m-4.977,5.047a1.788,1.788,0,0,0-.185-.848.562.562,0,0,0-.509-.337.676.676,0,0,0-.6.4,8.17,8.17,0,0,0-.528,1.9,13.937,13.937,0,0,0-.309,1.882c0,.427.139.641.414.641a.925.925,0,0,0,.618-.282,3.673,3.673,0,0,0,.7-1.328,5.847,5.847,0,0,0,.411-2.05Zm1.374-1.365-.738,3.715a4.213,4.213,0,0,0-.1.79c0,.176.049.266.157.266s.21-.124.374-.375a5.269,5.269,0,0,0,.491-1.115h.225a4.451,4.451,0,0,1-.692,1.548,1.068,1.068,0,0,1-.772.5q-.676,0-.732-1.211h-.022q-.486,1.212-1.355,1.211a1.1,1.1,0,0,1-.926-.6,2.668,2.668,0,0,1-.386-1.468,3.79,3.79,0,0,1,.79-2.372,2.138,2.138,0,0,1,1.572-1.028c.5,0,.794.328.9.975h.025l.157-.858Zm-6.395-.04-.309,1.622.022.025c.5-1.149.945-1.724,1.343-1.724a.484.484,0,0,1,.377.176.642.642,0,0,1,.157.437.62.62,0,0,1-.151.433.487.487,0,0,1-.383.167.453.453,0,0,1-.358-.161c-.093-.108-.154-.161-.179-.161-.08,0-.207.152-.383.452a4.982,4.982,0,0,0-.408.879,11.067,11.067,0,0,0-.309,1.347l-.346,1.79h-1.031l.892-4.867h-.84l.071-.334h.682a6.648,6.648,0,0,0,1.167-.093Zm-3.224.084-.713,3.715a1.908,1.908,0,0,0-.065.31,2.633,2.633,0,0,0-.049.458.431.431,0,0,0,.053.2.151.151,0,0,0,.13.093q.2,0,.472-.409a4.761,4.761,0,0,0,.5-1.084h.247a4.2,4.2,0,0,1-.757,1.529,1.234,1.234,0,0,1-.889.5.568.568,0,0,1-.525-.31,1.437,1.437,0,0,1-.179-.715,3.723,3.723,0,0,1,.043-.43l-.022-.028q-.849,1.492-1.766,1.489a.9.9,0,0,1-.679-.31,1.169,1.169,0,0,1-.293-.833,2.485,2.485,0,0,1,.046-.427c.034-.161.059-.31.086-.458l.571-2.982H110.5l.065-.31h.926a4.194,4.194,0,0,0,.67-.043,2.764,2.764,0,0,1,.333-.04l-.738,3.79a3.723,3.723,0,0,0-.108.752c0,.266.1.4.309.4s.5-.2.877-.619a4.25,4.25,0,0,0,.843-2.028l.435-2.223Zm-5.826-1.449-.256,1.449h.7l-.062.334h-.695l-.726,3.678a3.309,3.309,0,0,0-.09.588c0,.17.062.254.182.254q.435,0,.96-1.57h.229a4.011,4.011,0,0,1-.679,1.5,1.154,1.154,0,0,1-.889.514c-.516,0-.772-.31-.772-.929a5.8,5.8,0,0,1,.13-.947l.618-3.077h-.713l.052-.334h.71l.247-1.26a3.081,3.081,0,0,0,1.068-.217Zm-4.767,2.771a1.778,1.778,0,0,0-.185-.848.562.562,0,0,0-.509-.337.679.679,0,0,0-.6.4,8.219,8.219,0,0,0-.525,1.9,13.8,13.8,0,0,0-.309,1.882c0,.427.139.641.414.641a.925.925,0,0,0,.618-.282,3.654,3.654,0,0,0,.7-1.328,5.828,5.828,0,0,0,.414-2.05Zm1.377-1.365-.738,3.715a4.152,4.152,0,0,0-.1.79c0,.176.049.266.157.266s.21-.124.371-.375a5.205,5.205,0,0,0,.491-1.115h.225a4.452,4.452,0,0,1-.692,1.548,1.071,1.071,0,0,1-.772.5q-.676,0-.732-1.211h-.022q-.486,1.212-1.352,1.211a1.1,1.1,0,0,1-.926-.6,2.668,2.668,0,0,1-.386-1.468,3.787,3.787,0,0,1,.79-2.372,2.131,2.131,0,0,1,1.572-1.028c.494,0,.794.328.892.975h.025l.157-.858Zm-9.371-3.585,2.436,6.455h.022l1.087-6.118H99.1l.065-.334h2.18l-.056.334h-.9l-1.519,8.536h-.269l-3.23-8.551H95.27l-1.442,8.1h1.152l-.056.334H92.383l.065-.334h1.087l1.445-8.1H93.914l.059-.334Zm-7.37-.1-1.473,7.6a3.491,3.491,0,0,0-.083.594c0,.149.046.223.136.223q.469,0,.926-1.5h.244q-.618,2.105-1.633,2.105a.66.66,0,0,1-.5-.226.875.875,0,0,1-.216-.619,3.783,3.783,0,0,1,.077-.567L88.041,184h-.707l.052-.334h.738a9.128,9.128,0,0,0,1.078-.127ZM84.21,188.6a1.759,1.759,0,0,0-.185-.848.562.562,0,0,0-.509-.337.679.679,0,0,0-.6.4,8.235,8.235,0,0,0-.525,1.9,13.929,13.929,0,0,0-.309,1.882c0,.427.139.641.414.641a.925.925,0,0,0,.618-.282,3.648,3.648,0,0,0,.7-1.328,5.862,5.862,0,0,0,.408-2.05Zm1.374-1.365-.738,3.715a4.178,4.178,0,0,0-.1.789c0,.176.052.266.157.266s.21-.124.371-.375a5.27,5.27,0,0,0,.491-1.115h.225a4.492,4.492,0,0,1-.695,1.548,1.071,1.071,0,0,1-.772.5q-.676,0-.732-1.211h-.022q-.486,1.212-1.352,1.211a1.1,1.1,0,0,1-.926-.6,2.674,2.674,0,0,1-.386-1.468,3.781,3.781,0,0,1,.79-2.372,2.13,2.13,0,0,1,1.569-1.028c.5,0,.794.328.9.975h.022l.157-.858Zm-6.395-.04-.309,1.622.022.025q.75-1.724,1.343-1.724a.484.484,0,0,1,.377.176.692.692,0,0,1,0,.873.484.484,0,0,1-.383.167.453.453,0,0,1-.358-.161c-.093-.108-.154-.161-.176-.161-.08,0-.21.152-.386.452a4.982,4.982,0,0,0-.408.879,11.461,11.461,0,0,0-.309,1.347l-.343,1.79H77.238l.892-4.867h-.84l.071-.334h.679a6.644,6.644,0,0,0,1.167-.1ZM74.2,189.86a1.189,1.189,0,0,0,1.433-1,3,3,0,0,0,.157-.836c0-.409-.154-.619-.457-.619a.72.72,0,0,0-.655.464,8.453,8.453,0,0,0-.46,1.975Zm-.052.31a13.466,13.466,0,0,0-.222,1.43.751.751,0,0,0,.17.486.574.574,0,0,0,.482.211q1,0,1.689-1.594h.232a3.5,3.5,0,0,1-.892,1.427,1.625,1.625,0,0,1-1.075.461,1.315,1.315,0,0,1-1.121-.669,2.743,2.743,0,0,1-.445-1.548,3.619,3.619,0,0,1,.778-2.208,2.133,2.133,0,0,1,1.646-1.037,1.012,1.012,0,0,1,.868.415,1.5,1.5,0,0,1,.309.913,1.941,1.941,0,0,1-.417,1.1q-.4.564-1.985.582Zm-5.027-3.012-.278,1.418.022.025q.926-1.5,1.9-1.5a.768.768,0,0,1,.593.26.986.986,0,0,1,.235.69,3.817,3.817,0,0,1-.086.619l-.5,2.421a3.12,3.12,0,0,0-.074.56q0,.31.179.31.488,0,.985-1.433h.256a3.738,3.738,0,0,1-.772,1.5,1.3,1.3,0,0,1-.926.471c-.5,0-.747-.279-.747-.842a4.731,4.731,0,0,1,.117-.87l.46-2.189a2.053,2.053,0,0,1,.043-.211,1.553,1.553,0,0,0,.037-.359c0-.294-.1-.437-.293-.437s-.522.22-.926.659a5.39,5.39,0,0,0-.954,2.5l-.309,1.647H67.051l.926-4.805h-.926l.059-.334h.735A5.976,5.976,0,0,0,69.117,187.157Zm-3.542,0-.818,4.025a4.757,4.757,0,0,0-.086.638c0,.164.068.245.2.245a.95.95,0,0,0,.58-.437,5.133,5.133,0,0,0,.645-1.291h.247q-.716,2.235-1.955,2.235-.719,0-.719-.9a2.747,2.747,0,0,1,.065-.582q.065-.307.1-.5l.618-2.982H63.42l.059-.334h.633a8.342,8.342,0,0,0,1.46-.115Zm-.648-2.734a.751.751,0,0,1,.179-.5.537.537,0,0,1,.42-.214.546.546,0,0,1,.429.207.819.819,0,0,1,0,1.025.527.527,0,0,1-.846,0,.763.763,0,0,1-.188-.529Zm-8.2-.771.809,6.557h.022l3.162-6.557h2.594l-.056.334H62.244l-1.464,8.084h1l-.053.334h-3.3l.056-.334h1.016l1.442-8.1h-.1L56.834,192.4h-.262l-1.041-8.431h-.1l-1.445,8.1h1.065l-.056.334H52.65l.065-.334h1l1.442-8.1h-1l.056-.334Zm-9.387,4.954a1.784,1.784,0,0,0-.185-.848.562.562,0,0,0-.509-.337.679.679,0,0,0-.6.4,8.182,8.182,0,0,0-.525,1.9,13.809,13.809,0,0,0-.309,1.882c0,.427.139.641.414.641a.925.925,0,0,0,.618-.282,3.653,3.653,0,0,0,.7-1.328,5.865,5.865,0,0,0,.392-2.056Zm1.374-1.365-.738,3.715a4.212,4.212,0,0,0-.1.789c0,.176.052.266.157.266s.21-.124.371-.375a5.239,5.239,0,0,0,.491-1.115h.225a4.424,4.424,0,0,1-.695,1.548,1.068,1.068,0,0,1-.769.5q-.676,0-.732-1.211h-.037q-.486,1.212-1.355,1.211a1.1,1.1,0,0,1-.926-.6,2.662,2.662,0,0,1-.386-1.468,3.793,3.793,0,0,1,.815-2.372A2.138,2.138,0,0,1,46.6,187.1c.494,0,.794.328.9.975h0l.157-.858Zm-5.657.043L42.341,191a2.286,2.286,0,0,0-.065.31,2.636,2.636,0,0,0-.049.458.456.456,0,0,0,.052.2.154.154,0,0,0,.13.093c.133,0,.293-.136.472-.409a4.758,4.758,0,0,0,.5-1.084h.247a4.175,4.175,0,0,1-.756,1.5,1.234,1.234,0,0,1-.892.5.568.568,0,0,1-.525-.31,1.443,1.443,0,0,1-.176-.715,3.506,3.506,0,0,1,.043-.43l-.022-.028q-.849,1.492-1.766,1.489a.9.9,0,0,1-.679-.31,1.166,1.166,0,0,1-.293-.833,2.273,2.273,0,0,1,.046-.427c.031-.161.059-.31.086-.458l.571-2.982H38.4l.065-.31h.926a4.164,4.164,0,0,0,.67-.043,2.815,2.815,0,0,1,.333-.04l-.738,3.79a3.755,3.755,0,0,0-.108.752q0,.4.309.4t.877-.619a4.234,4.234,0,0,0,.843-2.028l.435-2.223Zm-6.4,6.44a.962.962,0,0,0-.157-.536.711.711,0,0,0-.386-.31,3.517,3.517,0,0,0-.855-.068q-1.393,0-1.726.5a1.8,1.8,0,0,0-.333,1.006,1.066,1.066,0,0,0,.367.873,1.541,1.541,0,0,0,.994.31,2.038,2.038,0,0,0,1.544-.57,1.727,1.727,0,0,0,.55-1.226Zm-.534-5.641a.856.856,0,0,0-.127-.471.42.42,0,0,0-.38-.2q-.6,0-.815.969a7.316,7.316,0,0,0-.222,1.356c0,.468.176.7.528.7s.618-.31.781-.907a6.034,6.034,0,0,0,.232-1.471Zm-2.161,4.644a1.239,1.239,0,0,1-.747-1.139,1.375,1.375,0,0,1,.9-1.341,1.8,1.8,0,0,1-.4-1.136,1.932,1.932,0,0,1,.568-1.39,1.7,1.7,0,0,1,1.26-.594,1.306,1.306,0,0,1,1.235.882H36.8a1.266,1.266,0,0,1,.148-.7.435.435,0,0,1,.358-.226.336.336,0,0,1,.262.13.487.487,0,0,1,.114.341q0,.427-.278.427a.2.2,0,0,1-.182-.127,1.183,1.183,0,0,0-.077-.139c0-.043-.019-.068-.052-.068-.083,0-.127.139-.127.412l.022.576a2.084,2.084,0,0,1-.574,1.511,1.783,1.783,0,0,1-1.315.594,1.431,1.431,0,0,1-.865-.31q-.618.276-.618.706a.415.415,0,0,0,.195.368,1.814,1.814,0,0,0,.849.127,6.02,6.02,0,0,1,1.507.118,1.011,1.011,0,0,1,.568.557,2.309,2.309,0,0,1,.219,1.043,2.291,2.291,0,0,1-2.467,2.437,2.24,2.24,0,0,1-1.427-.4,1.24,1.24,0,0,1-.5-1.019q0-1.074,1.4-1.669Zm-3.705-9.762-.111-.189,1.235-1.189s.13-.118.346-.328a.9.9,0,0,1,.571-.31.389.389,0,0,1,.34.183.673.673,0,0,1,.12.365.57.57,0,0,1-.182.412,3.011,3.011,0,0,1-.852.458Zm-2.47,6.226H29.9l.256-3.468-.025-.028Zm2.115.31h-2.34l-1.741,2.57h1.173l-.052.334H24.5l.052-.334h.9l5.867-8.638h.272l-.67,8.638h1.059l-.056.334h-3.4l.049-.334h1.09Z" transform="translate(-16.915 -125.09)" fill="#fff"/></svg>