<svg xmlns="http://www.w3.org/2000/svg" viewBox="0 0 393.95 228.8"><defs><style>.cls-1{isolation:isolate;}.cls-2{mix-blend-mode:multiply;}.cls-3{fill:#0751b0;}</style></defs><title>lev-logo_1</title><g class="cls-1"><g id="Camada_2" data-name="Camada 2"><g id="Camada_1-2" data-name="Camada 1"><g class="cls-2"><path class="cls-3" d="M194.89,104.23a293.92,293.92,0,0,0-29.83-.73l0,64.68c14.36-.08,27.08-.21,39.37-1.14a205.32,205.32,0,0,0,37-6l.32-.08q0,5.95,0,11.9H142.12v-121h94.31l0,10.3-.32-.08c-21.51-5.59-36.92-5.55-58.6-5.51-3.92,0-8.06,0-12.46,0l0,42h58.63q0,5.59,0,11.18l-.33-.09a148.74,148.74,0,0,0-28.51-5.47M243,52.47l24.93.35,58.56,99.47,50.37-97.48a6.23,6.23,0,0,1,2-2.72,4.79,4.79,0,0,1,3-.72h12.07l-.54.45a14.25,14.25,0,0,0-1.28,1.2,7.07,7.07,0,0,0-1.06,1.46l-63.8,114.2c-3.5,1.37-7,2.76-10.48,4.15q-37.14-60.18-74.28-120.37ZM.26,0H25.5V166.37a385,385,0,0,0,47.28-2A266.65,266.65,0,0,0,116.51,156l.32-.09q.19,8.47.43,17H0V0Z"/><path class="cls-3" d="M360.94,189.31l-4.77,24.56a11.25,11.25,0,0,0-.27,1.92c0,.48.15.72.44.72q1.53,0,3-4.84h.8q-2,6.8-5.29,6.8a2.14,2.14,0,0,1-1.62-.73,2.81,2.81,0,0,1-.7-2,12.3,12.3,0,0,1,.24-1.83l4.47-23.16h-2.43l.17-1.08h2.39a29.6,29.6,0,0,0,3.52-.31m-16.12,16.3a5.76,5.76,0,0,0-.6-2.74,1.82,1.82,0,0,0-1.65-1.09,2.19,2.19,0,0,0-1.93,1.3,26.33,26.33,0,0,0-1.71,6.15,44.89,44.89,0,0,0-1,6.08c0,1.38.45,2.07,1.34,2.07a3,3,0,0,0,2-.91,11.85,11.85,0,0,0,2.26-4.29A18.84,18.84,0,0,0,344.81,205.61Zm4.45-4.41-2.39,12a13.58,13.58,0,0,0-.33,2.55c0,.57.16.86.51.86s.68-.4,1.21-1.21a17,17,0,0,0,1.59-3.6h.73a14.36,14.36,0,0,1-2.24,5,3.46,3.46,0,0,1-2.5,1.6c-1.46,0-2.25-1.3-2.37-3.91h-.07c-1.05,2.61-2.51,3.91-4.39,3.91a3.57,3.57,0,0,1-3-1.93,8.6,8.6,0,0,1-1.25-4.74,12.22,12.22,0,0,1,2.56-7.66q2.56-3.31,5.09-3.32c1.61,0,2.57,1.06,2.9,3.15h.08l.51-2.77Zm-20.71-.13-1,5.24.07.08c1.62-3.71,3.06-5.57,4.35-5.57a1.57,1.57,0,0,1,1.22.57,2.07,2.07,0,0,1,.51,1.41,2,2,0,0,1-.49,1.4,1.58,1.58,0,0,1-1.24.54,1.47,1.47,0,0,1-1.16-.52c-.3-.35-.5-.52-.58-.52-.26,0-.67.49-1.24,1.46a16.07,16.07,0,0,0-1.32,2.84,35.67,35.67,0,0,0-1,4.35l-1.12,5.78h-3.34l2.89-15.72h-2.72l.23-1.08h2.21A21.6,21.6,0,0,0,328.56,201.08Zm-10.44.27-2.31,12a6.15,6.15,0,0,0-.21,1,8.48,8.48,0,0,0-.16,1.48,1.39,1.39,0,0,0,.17.65.49.49,0,0,0,.42.3c.43,0,.94-.44,1.53-1.32a15.36,15.36,0,0,0,1.62-3.5h.8a13.54,13.54,0,0,1-2.45,4.94,4,4,0,0,1-2.88,1.6,1.84,1.84,0,0,1-1.7-1,4.63,4.63,0,0,1-.58-2.31,12,12,0,0,1,.14-1.39l-.07-.09q-2.75,4.82-5.72,4.81a2.93,2.93,0,0,1-2.2-1,3.77,3.77,0,0,1-.95-2.69,8,8,0,0,1,.15-1.38c.11-.52.19-1,.28-1.48l1.85-9.63h-2.79l.21-1h3a13.62,13.62,0,0,0,2.17-.14,9,9,0,0,1,1.08-.13l-2.39,12.24a12,12,0,0,0-.35,2.43c0,.86.33,1.29,1,1.29s1.62-.65,2.84-2,2.12-3.49,2.73-6.55l1.41-7.18Zm-18.87-4.68-.83,4.68h2.28l-.2,1.08H298.2l-2.35,11.88a10.66,10.66,0,0,0-.29,1.9c0,.55.2.82.59.82q1.41,0,3.11-5.07H300a12.94,12.94,0,0,1-2.2,4.85,3.74,3.74,0,0,1-2.88,1.66c-1.67,0-2.5-1-2.5-3a18.69,18.69,0,0,1,.42-3.06l2-9.94h-2.31l.17-1.08H295l.8-4.07A10,10,0,0,0,299.26,196.66Zm-15.44,8.95a5.73,5.73,0,0,0-.6-2.74,1.82,1.82,0,0,0-1.65-1.09,2.2,2.2,0,0,0-1.93,1.3,26.49,26.49,0,0,0-1.7,6.15,44.48,44.48,0,0,0-1,6.08c0,1.38.45,2.07,1.34,2.07a3,3,0,0,0,2-.91,11.79,11.79,0,0,0,2.26-4.29A18.78,18.78,0,0,0,283.82,205.61Zm4.46-4.41-2.39,12a13.38,13.38,0,0,0-.33,2.55c0,.57.16.86.51.86s.68-.4,1.2-1.21a16.79,16.79,0,0,0,1.59-3.6h.73a14.36,14.36,0,0,1-2.24,5,3.47,3.47,0,0,1-2.5,1.6c-1.46,0-2.25-1.3-2.37-3.91h-.07c-1.05,2.61-2.51,3.91-4.38,3.91a3.56,3.56,0,0,1-3-1.93,8.6,8.6,0,0,1-1.25-4.74,12.21,12.21,0,0,1,2.56-7.66q2.55-3.31,5.09-3.32c1.6,0,2.57,1.06,2.89,3.15h.08l.51-2.77Zm-30.35-11.58,7.89,20.85h.07l3.52-19.76h-3.26l.21-1.08h7.06l-.18,1.08h-2.93l-4.92,27.57h-.87L254,190.71h-.3l-4.67,26.16h3.73l-.18,1.08h-8.23l.21-1.08h3.52l4.68-26.16h-3.45l.19-1.08Zm-23.87-.31-4.77,24.56a11.25,11.25,0,0,0-.27,1.92c0,.48.15.72.44.72q1.52,0,3-4.84h.79q-2,6.8-5.29,6.8a2.14,2.14,0,0,1-1.62-.73,2.82,2.82,0,0,1-.7-2,12.18,12.18,0,0,1,.25-1.83l4.46-23.16H228l.17-1.08h2.39A29.64,29.64,0,0,0,234.05,189.31Zm-16.12,16.3a5.67,5.67,0,0,0-.6-2.74,1.82,1.82,0,0,0-1.65-1.09,2.2,2.2,0,0,0-1.93,1.3,26.54,26.54,0,0,0-1.7,6.15,44.89,44.89,0,0,0-1,6.08c0,1.38.45,2.07,1.34,2.07a3,3,0,0,0,2-.91,11.77,11.77,0,0,0,2.27-4.29A18.89,18.89,0,0,0,217.93,205.61Zm4.45-4.41-2.39,12a13.46,13.46,0,0,0-.33,2.55c0,.57.17.86.51.86s.68-.4,1.2-1.21a17,17,0,0,0,1.59-3.6h.73a14.49,14.49,0,0,1-2.25,5,3.47,3.47,0,0,1-2.5,1.6c-1.46,0-2.25-1.3-2.37-3.91h-.07c-1.05,2.61-2.51,3.91-4.38,3.91a3.57,3.57,0,0,1-3-1.93,8.62,8.62,0,0,1-1.25-4.74,12.19,12.19,0,0,1,2.56-7.66q2.55-3.31,5.08-3.32c1.61,0,2.57,1.06,2.9,3.15h.07l.51-2.77Zm-20.71-.13-1,5.24.07.08q2.43-5.57,4.35-5.57a1.57,1.57,0,0,1,1.22.57,2.23,2.23,0,0,1,0,2.82,1.57,1.57,0,0,1-1.24.54,1.47,1.47,0,0,1-1.16-.52c-.3-.35-.5-.52-.57-.52-.26,0-.68.49-1.25,1.46a16.07,16.07,0,0,0-1.32,2.84,36.94,36.94,0,0,0-1,4.35l-1.11,5.78H195.3l2.89-15.72h-2.72l.23-1.08h2.2A21.57,21.57,0,0,0,201.68,201.08Zm-16.17,8.61a3.85,3.85,0,0,0,4.64-3.23,9.67,9.67,0,0,0,.51-2.7c0-1.32-.5-2-1.48-2A2.33,2.33,0,0,0,187,203.3,27.24,27.24,0,0,0,185.51,209.68Zm-.17,1a43.4,43.4,0,0,0-.72,4.62,2.42,2.42,0,0,0,.55,1.57,1.86,1.86,0,0,0,1.56.68q3.24,0,5.47-5.15h.75a11.3,11.3,0,0,1-2.89,4.61,5.27,5.27,0,0,1-3.48,1.49,4.26,4.26,0,0,1-3.63-2.16,8.84,8.84,0,0,1-1.44-5,11.67,11.67,0,0,1,2.52-7.13q2.52-3.35,5.33-3.35a3.28,3.28,0,0,1,2.81,1.34,4.84,4.84,0,0,1,1,2.95,6.26,6.26,0,0,1-1.35,3.56Q190.47,210.58,185.33,210.64ZM169,201l-.9,4.58.07.08q3-4.83,6.16-4.84a2.49,2.49,0,0,1,1.92.84,3.18,3.18,0,0,1,.76,2.23,12.3,12.3,0,0,1-.28,2l-1.61,7.82a10.06,10.06,0,0,0-.24,1.81q0,1,.58,1,1.58,0,3.19-4.63h.83a12.06,12.06,0,0,1-2.5,4.84,4.22,4.22,0,0,1-3,1.52c-1.61,0-2.42-.9-2.42-2.72a15.24,15.24,0,0,1,.38-2.81l1.49-7.07c0-.09.06-.31.14-.68a5,5,0,0,0,.12-1.16c0-.95-.31-1.41-.95-1.41s-1.69.71-3,2.13-2.31,4.11-3.09,8.07l-1,5.32h-3.34l3-15.52h-3l.19-1.08h2.38A19.41,19.41,0,0,0,169,201Zm-11.47,0-2.65,13a15.34,15.34,0,0,0-.28,2.06c0,.53.22.79.65.79s1.17-.47,1.88-1.41a16.56,16.56,0,0,0,2.09-4.17h.8q-2.32,7.22-6.33,7.22-2.33,0-2.33-2.91a8.85,8.85,0,0,1,.21-1.88c.14-.66.25-1.2.33-1.62l2-9.63h-3.35l.19-1.08h2.05A27.09,27.09,0,0,0,157.52,201Zm-2.1-8.83a2.42,2.42,0,0,1,.58-1.63,1.74,1.74,0,0,1,1.36-.69,1.77,1.77,0,0,1,1.39.67,2.64,2.64,0,0,1,0,3.31,1.71,1.71,0,0,1-2.74,0A2.46,2.46,0,0,1,155.41,192.12Zm-26.56-2.49,2.62,21.18h.07l10.24-21.18h8.4l-.18,1.08h-3.28L142,216.87h3.25l-.17,1.08H134.4l.18-1.08h3.29l4.67-26.16h-.32l-13,27.23h-.85L125,190.71h-.32L120,216.87h3.45l-.18,1.08h-7.6l.21-1.08h3.25l4.67-26.16h-3.25l.18-1.08Zm-30.4,16a5.75,5.75,0,0,0-.6-2.74,1.82,1.82,0,0,0-1.65-1.09,2.2,2.2,0,0,0-1.93,1.3,26.37,26.37,0,0,0-1.7,6.15,44.49,44.49,0,0,0-1,6.08c0,1.38.45,2.07,1.34,2.07a3,3,0,0,0,2-.91,11.79,11.79,0,0,0,2.26-4.29A18.9,18.9,0,0,0,98.46,205.61Zm4.45-4.41-2.39,12a13.57,13.57,0,0,0-.33,2.55c0,.57.17.86.51.86s.68-.4,1.2-1.21a16.9,16.9,0,0,0,1.59-3.6h.73a14.27,14.27,0,0,1-2.25,5,3.46,3.46,0,0,1-2.49,1.6c-1.46,0-2.25-1.3-2.37-3.91H97c-1.05,2.61-2.51,3.91-4.39,3.91a3.56,3.56,0,0,1-3-1.93,8.58,8.58,0,0,1-1.25-4.74A12.23,12.23,0,0,1,91,204.14q2.56-3.31,5.09-3.32c1.6,0,2.57,1.06,2.9,3.15H99l.51-2.77Zm-18.32.14-2.32,12a7.37,7.37,0,0,0-.21,1,8.49,8.49,0,0,0-.16,1.48,1.47,1.47,0,0,0,.17.65.5.5,0,0,0,.42.3c.43,0,.95-.44,1.53-1.32a15.35,15.35,0,0,0,1.62-3.5h.8A13.47,13.47,0,0,1,84,216.87a4,4,0,0,1-2.89,1.6,1.84,1.84,0,0,1-1.7-1,4.65,4.65,0,0,1-.57-2.31,11.29,11.29,0,0,1,.14-1.39l-.07-.09q-2.75,4.82-5.72,4.81a2.93,2.93,0,0,1-2.2-1,3.76,3.76,0,0,1-.95-2.69,7.32,7.32,0,0,1,.15-1.38c.1-.52.19-1,.28-1.48l1.85-9.63H69.52l.21-1h3a13.53,13.53,0,0,0,2.17-.14,9.13,9.13,0,0,1,1.08-.13l-2.39,12.24a12.1,12.1,0,0,0-.35,2.43q0,1.29,1,1.29t2.84-2q1.83-2,2.73-6.55l1.41-7.18Zm-20.72,20.8a3.1,3.1,0,0,0-.51-1.73,2.3,2.3,0,0,0-1.25-1,11.42,11.42,0,0,0-2.77-.22q-4.51,0-5.59,1.61a5.8,5.8,0,0,0-1.08,3.25,3.44,3.44,0,0,0,1.19,2.82,5,5,0,0,0,3.22,1,6.61,6.61,0,0,0,5-1.84A5.57,5.57,0,0,0,63.87,222.14Zm-1.73-18.22a2.76,2.76,0,0,0-.41-1.52,1.36,1.36,0,0,0-1.23-.63q-1.93,0-2.64,3.13a23.57,23.57,0,0,0-.72,4.38c0,1.51.57,2.26,1.71,2.26s2-1,2.53-2.93A19.44,19.44,0,0,0,62.14,203.93Zm-7,15a4,4,0,0,1-2.42-3.68,4.44,4.44,0,0,1,2.9-4.33,5.8,5.8,0,0,1-1.28-3.67,6.23,6.23,0,0,1,1.84-4.49,5.52,5.52,0,0,1,4.08-1.92,4.23,4.23,0,0,1,4,2.85h.07a4.08,4.08,0,0,1,.48-2.25,1.41,1.41,0,0,1,1.16-.73,1.09,1.09,0,0,1,.85.42,1.57,1.57,0,0,1,.37,1.1q0,1.38-.9,1.38a.66.66,0,0,1-.59-.41,3.82,3.82,0,0,0-.25-.45c0-.14-.06-.22-.17-.22-.27,0-.41.45-.41,1.33l.07,1.86a6.72,6.72,0,0,1-1.86,4.88,5.78,5.78,0,0,1-4.26,1.92,4.64,4.64,0,0,1-2.8-1q-2,.89-2,2.28a1.34,1.34,0,0,0,.63,1.19,5.89,5.89,0,0,0,2.75.41,19.55,19.55,0,0,1,4.88.38,3.27,3.27,0,0,1,1.84,1.8,7.44,7.44,0,0,1,.71,3.37,7.78,7.78,0,0,1-2.14,5.71,7.88,7.88,0,0,1-5.85,2.16,7.27,7.27,0,0,1-4.62-1.3,4,4,0,0,1-1.63-3.29Q50.61,220.82,55.13,218.9Zm-12-31.53-.36-.61,4-3.84s.42-.38,1.12-1.06a2.91,2.91,0,0,1,1.85-1,1.26,1.26,0,0,1,1.1.59,2.17,2.17,0,0,1,.39,1.18,1.84,1.84,0,0,1-.59,1.33,9.76,9.76,0,0,1-2.76,1.48Zm-8,20.11H42l.83-11.2-.08-.09ZM42,208.57H34.42l-5.64,8.3h3.8l-.17,1.08H24.5l.17-1.08h2.9l19-27.9h.88l-2.17,27.9h3.43l-.18,1.08h-11l.16-1.08h3.53Z"/></g></g></g></g></svg>